<svg xmlns="http://www.w3.org/2000/svg" xmlns:xlink="http://www.w3.org/1999/xlink" width="163" height="98" viewBox="0 0 163 98">
    <defs>
        <path id="kt8gw5u1qa" d="M0.2 0.126L19.962 0.126 19.962 11.982 0.2 11.982z"/>
    </defs>
    <g fill="none" fill-rule="evenodd">
        <g>
            <g>
                <path fill="#FFFFFE" d="M47.5 54c-2.486 0-4.5-2.016-4.5-4.5s2.014-4.5 4.5-4.5c2.485 0 4.5 2.016 4.5 4.5S49.985 54 47.5 54M44.5 43c-2.486 0-4.5-2.015-4.5-4.5s2.014-4.5 4.5-4.5c2.485 0 4.5 2.015 4.5 4.5S46.985 43 44.5 43M36.5 35c-2.486 0-4.5-2.015-4.5-4.5 0-2.484 2.014-4.5 4.5-4.5 2.485 0 4.5 2.016 4.5 4.5 0 2.485-2.015 4.5-4.5 4.5M25.5 32c-2.486 0-4.5-2.015-4.5-4.5s2.014-4.5 4.5-4.5c2.485 0 4.5 2.015 4.5 4.5S27.985 32 25.5 32M15.5 35c-2.486 0-4.5-2.016-4.5-4.5 0-2.485 2.014-4.5 4.5-4.5 2.485 0 4.5 2.015 4.5 4.5 0 2.484-2.015 4.5-4.5 4.5" transform="translate(-218 -1184) translate(218 1184)"/>
                <g fill="#FFFFFE">
                    <path d="M7.38 9.268c-2.475 0-4.48-2.038-4.48-4.55S4.905.168 7.38.168c2.474 0 4.48 2.038 4.48 4.55s-2.006 4.55-4.48 4.55M4.48 19.843c-2.475 0-4.48-2.038-4.48-4.55s2.005-4.55 4.48-4.55c2.474 0 4.48 2.038 4.48 4.55s-2.006 4.55-4.48 4.55" transform="translate(-218 -1184) translate(218 1184) translate(0 34)"/>
                </g>
                <path fill="#FFFFFE" d="M7.5 64C5.013 64 3 61.985 3 59.5 3 57.016 5.014 55 7.5 55c2.485 0 4.5 2.016 4.5 4.5 0 2.485-2.015 4.5-4.5 4.5M15.5 72c-2.486 0-4.5-2.016-4.5-4.5 0-2.485 2.014-4.5 4.5-4.5 2.485 0 4.5 2.015 4.5 4.5 0 2.484-2.015 4.5-4.5 4.5M26.5 75c-2.486 0-4.5-2.015-4.5-4.5 0-2.484 2.014-4.5 4.5-4.5 2.485 0 4.5 2.016 4.5 4.5 0 2.485-2.015 4.5-4.5 4.5M37.5 72c-2.486 0-4.5-2.015-4.5-4.5s2.014-4.5 4.5-4.5c2.485 0 4.5 2.015 4.5 4.5S39.985 72 37.5 72M47.5 76c-2.486 0-4.5-2.016-4.5-4.5 0-2.485 2.014-4.5 4.5-4.5 2.485 0 4.5 2.015 4.5 4.5 0 2.484-2.015 4.5-4.5 4.5M46.5 87c-2.486 0-4.5-2.016-4.5-4.5 0-2.485 2.014-4.5 4.5-4.5 2.485 0 4.5 2.015 4.5 4.5 0 2.484-2.015 4.5-4.5 4.5" transform="translate(-218 -1184) translate(218 1184)"/>
                <g transform="translate(-218 -1184) translate(218 1184) translate(23 86)">
                    <mask id="hhe8yvgizb" fill="#fff">
                        <use href="#kt8gw5u1qa"/>
                    </mask>
                    <path fill="#FFFFFE" d="M15.482 8.86c-2.474 0-4.48-1.955-4.48-4.367 0-2.411 2.006-4.367 4.48-4.367 2.474 0 4.48 1.956 4.48 4.367s-2.006 4.368-4.48 4.368M4.68 12C2.204 12 .2 10.044.2 7.632c0-2.411 2.005-4.367 4.48-4.367 2.473 0 4.48 1.956 4.48 4.367C9.16 10.044 7.152 12 4.68 12" mask="url(#hhe8yvgizb)"/>
                </g>
                <path fill="#FFFFFE" d="M16.5 95c-2.486 0-4.5-2.016-4.5-4.5 0-2.485 2.014-4.5 4.5-4.5 2.485 0 4.5 2.015 4.5 4.5 0 2.484-2.015 4.5-4.5 4.5M47.5 65c-2.486 0-4.5-2.016-4.5-4.5 0-2.485 2.014-4.5 4.5-4.5 2.485 0 4.5 2.015 4.5 4.5 0 2.484-2.015 4.5-4.5 4.5M62.5 75c-2.486 0-4.5-2.015-4.5-4.5s2.014-4.5 4.5-4.5c2.485 0 4.5 2.015 4.5 4.5S64.985 75 62.5 75M62.5 64c-2.486 0-4.5-2.015-4.5-4.5s2.014-4.5 4.5-4.5c2.485 0 4.5 2.015 4.5 4.5S64.985 64 62.5 64M62.5 53c-2.486 0-4.5-2.015-4.5-4.5s2.014-4.5 4.5-4.5c2.485 0 4.5 2.015 4.5 4.5S64.985 53 62.5 53M101.5 75c-2.486 0-4.5-2.015-4.5-4.5s2.014-4.5 4.5-4.5c2.485 0 4.5 2.015 4.5 4.5s-2.015 4.5-4.5 4.5M101.5 64c-2.486 0-4.5-2.015-4.5-4.5s2.014-4.5 4.5-4.5c2.485 0 4.5 2.015 4.5 4.5s-2.015 4.5-4.5 4.5M101.5 53c-2.486 0-4.5-2.015-4.5-4.5s2.014-4.5 4.5-4.5c2.485 0 4.5 2.015 4.5 4.5s-2.015 4.5-4.5 4.5M99.5 43c-2.486 0-4.5-2.015-4.5-4.5s2.014-4.5 4.5-4.5c2.485 0 4.5 2.015 4.5 4.5s-2.015 4.5-4.5 4.5M92.5 34c-2.486 0-4.5-2.015-4.5-4.5s2.014-4.5 4.5-4.5c2.485 0 4.5 2.015 4.5 4.5S94.985 34 92.5 34M82.5 32c-2.486 0-4.5-2.015-4.5-4.5s2.014-4.5 4.5-4.5c2.485 0 4.5 2.015 4.5 4.5S84.985 32 82.5 32M72.5 36c-2.486 0-4.5-2.015-4.5-4.5s2.014-4.5 4.5-4.5c2.485 0 4.5 2.015 4.5 4.5S74.985 36 72.5 36M62.5 42c-2.486 0-4.5-2.015-4.5-4.5s2.014-4.5 4.5-4.5c2.485 0 4.5 2.015 4.5 4.5S64.985 42 62.5 42M62.5 31c-2.486 0-4.5-2.015-4.5-4.5s2.014-4.5 4.5-4.5c2.485 0 4.5 2.015 4.5 4.5S64.985 31 62.5 31M62.5 20c-2.486 0-4.5-2.015-4.5-4.5s2.014-4.5 4.5-4.5c2.485 0 4.5 2.015 4.5 4.5S64.985 20 62.5 20M62.5 9C60.013 9 58 6.985 58 4.5S60.014 0 62.5 0C64.984 0 67 2.015 67 4.5S64.985 9 62.5 9M158.5 53c-2.486 0-4.5-2.016-4.5-4.5 0-2.485 2.014-4.5 4.5-4.5 2.485 0 4.5 2.015 4.5 4.5 0 2.484-2.015 4.5-4.5 4.5M114.5 53c-2.486 0-4.5-2.015-4.5-4.5s2.014-4.5 4.5-4.5c2.485 0 4.5 2.015 4.5 4.5s-2.015 4.5-4.5 4.5M118.5 42c-2.486 0-4.5-2.015-4.5-4.5s2.014-4.5 4.5-4.5c2.485 0 4.5 2.015 4.5 4.5s-2.015 4.5-4.5 4.5M126.5 35c-2.486 0-4.5-2.015-4.5-4.5s2.014-4.5 4.5-4.5c2.485 0 4.5 2.015 4.5 4.5s-2.015 4.5-4.5 4.5M137.5 32c-2.486 0-4.5-2.015-4.5-4.5s2.014-4.5 4.5-4.5c2.485 0 4.5 2.015 4.5 4.5s-2.015 4.5-4.5 4.5M148.5 36c-2.486 0-4.5-2.015-4.5-4.5s2.014-4.5 4.5-4.5c2.485 0 4.5 2.015 4.5 4.5s-2.015 4.5-4.5 4.5M117.5 64c-2.486 0-4.5-2.015-4.5-4.5s2.014-4.5 4.5-4.5c2.485 0 4.5 2.015 4.5 4.5s-2.015 4.5-4.5 4.5M125.5 72c-2.486 0-4.5-2.015-4.5-4.5s2.014-4.5 4.5-4.5c2.485 0 4.5 2.015 4.5 4.5s-2.015 4.5-4.5 4.5M136.5 75c-2.486 0-4.5-2.015-4.5-4.5s2.014-4.5 4.5-4.5c2.485 0 4.5 2.015 4.5 4.5s-2.015 4.5-4.5 4.5M147.5 72c-2.486 0-4.5-2.015-4.5-4.5s2.014-4.5 4.5-4.5c2.485 0 4.5 2.015 4.5 4.5s-2.015 4.5-4.5 4.5M155.5 64c-2.486 0-4.5-2.015-4.5-4.5s2.014-4.5 4.5-4.5c2.485 0 4.5 2.015 4.5 4.5s-2.015 4.5-4.5 4.5M158.5 42c-2.486 0-4.5-2.015-4.5-4.5s2.014-4.5 4.5-4.5c2.485 0 4.5 2.015 4.5 4.5s-2.015 4.5-4.5 4.5M158.5 31c-2.486 0-4.5-2.015-4.5-4.5s2.014-4.5 4.5-4.5c2.485 0 4.5 2.015 4.5 4.5s-2.015 4.5-4.5 4.5M158.5 20c-2.486 0-4.5-2.015-4.5-4.5s2.014-4.5 4.5-4.5c2.485 0 4.5 2.015 4.5 4.5s-2.015 4.5-4.5 4.5M158.5 9c-2.486 0-4.5-2.015-4.5-4.5s2.014-4.5 4.5-4.5c2.485 0 4.5 2.015 4.5 4.5S160.985 9 158.5 9M63.539 92.978c.532 0 1-.11 1.403-.333.402-.221.74-.513 1.012-.874.273-.362.477-.777.614-1.246.136-.47.205-.952.205-1.446 0-.482-.059-.964-.176-1.446-.117-.481-.305-.919-.565-1.312-.26-.393-.594-.71-1.003-.951-.41-.241-.906-.362-1.49-.362-.585 0-1.085.118-1.5.352-.416.235-.76.542-1.033.922-.273.382-.47.816-.594 1.304-.124.488-.185.986-.185 1.493 0 .494.065.977.195 1.446s.331.884.604 1.246c.272.361.616.653 1.032.874.416.222.91.333 1.48.333zM68 84.286v9.016c0 .723-.081 1.376-.243 1.959-.163.583-.42 1.078-.77 1.483-.35.407-.809.717-1.373.933-.566.215-1.257.323-2.075.323-.507 0-1-.057-1.48-.171-.481-.115-.914-.292-1.296-.533-.384-.24-.702-.548-.955-.922-.253-.375-.4-.822-.438-1.341h1.227c.065.368.192.675.38.923.188.247.416.446.682.599.266.152.562.263.886.332.325.07.655.105.994.105 1.142 0 1.967-.317 2.474-.952.506-.633.76-1.547.76-2.738V91.97h-.04c-.285.61-.704 1.097-1.256 1.465-.552.368-1.198.551-1.938.551-.806 0-1.494-.129-2.066-.39-.57-.26-1.042-.618-1.412-1.074-.37-.457-.64-.99-.808-1.598-.17-.608-.253-1.268-.253-1.978 0-.672.1-1.31.301-1.912.202-.603.494-1.128.877-1.579.383-.45.857-.804 1.423-1.065.564-.26 1.21-.39 1.938-.39.363 0 .714.05 1.052.153.337.101.646.243.925.427s.523.397.73.637c.208.242.37.495.487.761h.04v-1.692H68zM73.5 84.973c-.553 0-1.04.116-1.457.347-.418.232-.766.537-1.042.916-.277.378-.486.809-.627 1.29-.142.482-.212.974-.212 1.474 0 .501.07.992.212 1.474.14.482.35.913.627 1.29.276.38.624.684 1.042.917.418.23.904.347 1.457.347s1.039-.116 1.457-.347c.418-.233.766-.537 1.042-.916.277-.378.486-.809.627-1.29.141-.483.212-.974.212-1.475 0-.5-.07-.992-.212-1.474-.141-.481-.35-.912-.627-1.29-.276-.379-.624-.684-1.042-.916-.418-.231-.904-.347-1.457-.347zm0-.973c.725 0 1.368.135 1.927.404.56.269 1.03.63 1.411 1.083.381.452.67.984.867 1.596.197.611.295 1.253.295 1.926 0 .686-.098 1.33-.295 1.936-.197.605-.486 1.135-.867 1.587-.381.453-.852.811-1.41 1.074-.56.263-1.203.394-1.928.394-.726 0-1.368-.13-1.928-.394-.559-.263-1.03-.62-1.41-1.074-.382-.452-.67-.982-.867-1.587-.197-.606-.295-1.25-.295-1.936 0-.673.098-1.315.295-1.926.196-.612.485-1.144.867-1.596.38-.453.851-.814 1.41-1.083.56-.269 1.202-.404 1.928-.404zM82.5 84.973c-.553 0-1.04.116-1.457.347-.418.232-.766.537-1.042.916-.277.378-.486.809-.627 1.29-.142.482-.212.974-.212 1.474 0 .501.07.992.212 1.474.14.482.35.913.627 1.29.276.38.624.684 1.042.917.418.23.904.347 1.457.347s1.039-.116 1.457-.347c.418-.233.766-.537 1.042-.916.277-.378.486-.809.627-1.29.14-.483.212-.974.212-1.475 0-.5-.071-.992-.212-1.474-.141-.481-.35-.912-.627-1.29-.276-.379-.624-.684-1.042-.916-.418-.231-.904-.347-1.457-.347zm0-.973c.725 0 1.368.135 1.927.404.56.269 1.03.63 1.411 1.083.381.452.67.984.867 1.596.196.611.295 1.253.295 1.926 0 .686-.099 1.33-.295 1.936-.197.605-.486 1.135-.867 1.587-.381.453-.852.811-1.41 1.074-.56.263-1.203.394-1.928.394-.726 0-1.368-.13-1.928-.394-.559-.263-1.03-.62-1.41-1.074-.382-.452-.67-.982-.867-1.587-.197-.606-.295-1.25-.295-1.936 0-.673.098-1.315.295-1.926.196-.612.485-1.144.867-1.596.38-.453.851-.814 1.41-1.083.56-.269 1.202-.404 1.928-.404zM89.191 89.134c0 .476.06.947.18 1.416.12.47.308.889.567 1.257.258.368.59.668.993.9.403.23.888.347 1.456.347.63 0 1.162-.116 1.597-.347.435-.232.788-.532 1.059-.9.27-.368.466-.787.586-1.257.12-.469.18-.94.18-1.416 0-.475-.06-.947-.18-1.417-.12-.469-.315-.887-.586-1.255-.271-.369-.624-.669-1.059-.9-.435-.232-.967-.347-1.597-.347-.568 0-1.053.115-1.456.347-.404.231-.735.531-.993.9-.259.368-.447.786-.567 1.255-.12.47-.18.942-.18 1.417zM97 93.75h-1.097V92h-.037c-.127.31-.313.587-.558.83-.246.245-.527.453-.841.625-.316.173-.653.307-1.012.403-.36.094-.716.142-1.068.142-.745 0-1.39-.127-1.938-.384-.549-.255-1.005-.607-1.371-1.054-.366-.446-.636-.96-.813-1.544-.177-.583-.265-1.208-.265-1.875 0-.655.088-1.276.265-1.866.177-.589.447-1.108.813-1.553.366-.447.822-.801 1.37-1.063.549-.262 1.194-.393 1.939-.393.352 0 .705.044 1.058.134.353.09.681.217.983.384.303.167.57.375.804.624.233.25.413.543.54.876h.037V81H97v12.75zM103 81h1.203v5.225h.038c.23-.582.636-1.043 1.222-1.383.586-.34 1.228-.51 1.929-.51.687 0 1.263.085 1.727.255.465.17.837.41 1.117.72.28.309.478.688.592 1.137.115.45.172.953.172 1.511V94h-1.203v-5.862c0-.4-.038-.774-.114-1.12-.077-.347-.21-.647-.401-.902-.191-.254-.449-.455-.774-.6-.324-.146-.728-.219-1.212-.219s-.917.082-1.299.246c-.381.164-.706.389-.973.674-.268.285-.471.625-.611 1.019-.14.394-.21.822-.21 1.283V94H103V81M113.191 89c0 .489.06.974.18 1.455.12.483.308.913.567 1.292.259.378.589.686.993.924.403.238.888.357 1.456.357.63 0 1.162-.12 1.597-.357.435-.238.788-.546 1.06-.924.27-.379.465-.809.585-1.292.12-.481.18-.966.18-1.455 0-.488-.06-.973-.18-1.455-.12-.482-.315-.912-.586-1.29-.27-.38-.624-.688-1.059-.925-.435-.238-.967-.357-1.597-.357-.568 0-1.053.119-1.456.357-.404.237-.734.545-.993.924s-.448.809-.567 1.29c-.12.483-.18.968-.18 1.456zM121 93.744h-1.097v-1.799h-.037c-.127.319-.313.603-.558.853-.246.252-.527.465-.842.642-.315.178-.652.316-1.011.414-.36.097-.716.146-1.068.146-.745 0-1.39-.13-1.938-.394-.549-.263-1.006-.624-1.372-1.083-.365-.459-.636-.987-.812-1.587-.177-.6-.265-1.241-.265-1.927 0-.673.088-1.311.265-1.917.176-.605.447-1.138.812-1.596.366-.459.823-.823 1.372-1.092.548-.269 1.193-.404 1.938-.404.352 0 .705.046 1.058.138.353.092.68.223.983.394.303.172.57.385.804.642.233.257.413.557.539.9h.038v-1.946H121v9.616zM123 94h1v-9.395h-1V94zm0-11.161h1V81h-1v1.839zM126 84.138h1.137v2.312h.04c.314-.802.8-1.42 1.46-1.853.66-.433 1.448-.63 2.363-.592v1.204c-.562-.026-1.072.047-1.53.22-.457.171-.852.416-1.186.735-.333.319-.591.7-.774 1.147-.183.446-.275.924-.275 1.434V94H126v-9.862M135.191 89.134c0 .476.06.947.18 1.416.12.47.308.889.567 1.257.259.368.59.668.993.9.403.23.889.347 1.456.347.63 0 1.163-.116 1.597-.347.435-.232.788-.532 1.06-.9.27-.368.465-.787.585-1.257.12-.469.18-.94.18-1.416 0-.475-.06-.947-.18-1.417-.12-.469-.315-.887-.586-1.255-.27-.369-.624-.669-1.059-.9-.434-.232-.967-.347-1.597-.347-.567 0-1.053.115-1.456.347-.404.231-.734.531-.993.9-.259.368-.448.786-.567 1.255-.12.47-.18.942-.18 1.417zM143 93.75h-1.097V92h-.037c-.127.31-.313.587-.558.83-.246.245-.527.453-.842.625-.315.173-.652.307-1.011.403-.36.094-.716.142-1.068.142-.744 0-1.39-.127-1.938-.384-.549-.255-1.005-.607-1.372-1.054-.365-.446-.636-.96-.812-1.544-.177-.583-.265-1.208-.265-1.875 0-.655.088-1.276.265-1.866.176-.589.447-1.108.812-1.553.367-.447.823-.801 1.372-1.063.548-.262 1.194-.393 1.938-.393.352 0 .705.044 1.058.134.353.09.68.217.983.384.303.167.57.375.804.624.233.25.413.543.539.876h.038V81H143v12.75zM145.191 89c0 .489.06.974.18 1.455.12.483.308.913.567 1.292.259.378.59.686.993.924s.889.357 1.456.357c.63 0 1.163-.12 1.597-.357.435-.238.788-.546 1.06-.924.27-.379.465-.809.586-1.292.119-.481.179-.966.179-1.455 0-.488-.06-.973-.18-1.455-.12-.482-.315-.912-.586-1.29-.27-.38-.624-.688-1.059-.925-.434-.238-.967-.357-1.597-.357-.567 0-1.053.119-1.456.357-.404.237-.734.545-.993.924s-.448.809-.567 1.29c-.12.483-.18.968-.18 1.456zM153 93.744h-1.097v-1.799h-.037c-.127.319-.312.603-.558.853-.246.252-.527.465-.841.642-.316.178-.653.316-1.012.414-.359.097-.716.146-1.068.146-.744 0-1.39-.13-1.938-.394-.549-.263-1.005-.624-1.371-1.083-.366-.459-.637-.987-.813-1.587-.177-.6-.265-1.241-.265-1.927 0-.673.088-1.311.265-1.917.176-.605.447-1.138.813-1.596.366-.459.822-.823 1.37-1.092.549-.269 1.195-.404 1.939-.404.352 0 .705.046 1.058.138.353.092.681.223.983.394.303.172.57.385.804.642.233.257.413.557.54.9h.037v-1.946H153v9.616zM155 85h1.168l2.963 8.102L161.9 85H163l-3.904 10.938c-.14.405-.282.74-.427 1.004-.146.263-.308.475-.488.635-.18.16-.386.27-.619.331-.232.062-.511.092-.836.092-.221 0-.392-.006-.515-.018-.122-.012-.229-.037-.322-.074v-.976c.128.025.253.046.375.065.122.018.247.028.374.028.245 0 .448-.037.61-.11.163-.075.302-.176.42-.305.115-.129.214-.286.295-.47.081-.184.162-.386.244-.607l.384-1.069L155 85" transform="translate(-218 -1184) translate(218 1184)"/>
            </g>
        </g>
    </g>
</svg>
