<svg xmlns="http://www.w3.org/2000/svg" viewBox="0 0 447 601"><path fill="#000000" d="M1.81 238.44C-6.58 119.92 79.97 17.55 196.98 2.63c1.96-.25 5.92-.21 8.85-.99q2.35-.63 4.06-.63c10.43-.01 22.85-1.15 33.01.65q2.39.42 5.91.77c118.44 11.61 208.18 121.09 197.18 239.05-10.02 107.39-92.42 194.19-200.93 203.59C119.24 455.98 10.68 363.88 1.81 238.44ZM305.65 90.71c-6.81-25.66 13.25-46.99 38.32-45.87a.49.49 0 0 0 .52-.46c.04-.56-.63-.66-.94-.86Q302.3 16.48 253.32 9.56a.24.24 0 0 0-.27.25q1.11 16.21-3.12 31.89-.26.98-1.09.4c-1.75-1.22-2.83-.52-3.91 1.09q-4.84 7.24-10.33 14.35a.54.54 0 0 1-.77.09q-6.87-5.66-8.25-14.55c-.81-5.16.61-12.17 5.9-14.46q8.72-3.79 16.66-10.78a.51.5 11.1 0 0-.56-.83q-6.99 3.45-15.04 6.55c-13.54 5.21-14.97 23.51-9.94 34.89 6.49 14.69 18.27 13.03 31.33 17.72 7.51 2.7 8.18 10.97 10.41 17.48 3.99 11.6 25.97 20.76 36.85 23.03 25.2 5.26 45-14.42 46.19-38.71.45-9.34-4.38-16.98-13.88-19.02-21.15-4.55-28.99 14.24-26.76 31.62q.03.28-.24.35-.15.05-.3.09-.43.14-.55-.3ZM211.8 15.13c-8.58 6.05-16.39 15.07-18.83 25.03-10.23 41.79 55.25 30.85 49.49 70.49-1.79 12.28-9.36 22.52-11.93 34.28q-2.32 10.62.21 21.32c6.66 28.13 37.51 40.99 62.84 46.12 29.24 5.91 65.41 13.07 62.86 52.51a.43.43 0 0 0 .85.14c8.64-34.3-21.53-47.62-47.93-54.6-22.73-6.01-58.48-12.23-65.57-39.83-6.16-23.99 14.04-45.32 5.74-69.74-5.94-17.49-24.67-25.23-39.68-34.2-12.89-7.7-15.28-20.62-8.76-33.73 4.5-9.04 11.33-14.6 19.8-19.98q1.4-.88-.24-1.12c-17.24-2.42-37.93-.99-38.06 21.56-.01 3.16-.34 9.28 1.2 12.06q.68 1.22.74-.24c.75-17.61 10.73-27.13 26.97-30.75a.38.38 0 0 1 .3.68Zm-79.44 167.89q-.85 6.89-5.94 10.2c-9.73 6.32-21.57 5.71-32.25 1.19q-18.43-7.8-25.64-27.91c-10.17-28.39-1.79-63.33 30.83-71.85a.43.43 0 0 0-.1-.84c-11.51-.14-23.12 2.49-31.62 10.56-16.89 16.05-17.2 36.51-20.15 57.84-.79 5.64-2.86 13.35-9.59 14.54q-4.32.77-6.95-3.52-.62-1.01.4-.42 3.16 1.83 6.86 1.42a2.17 2.17 0 0 0 1.78-1.38c3.21-8.24 1.86-18.03 2.02-26.71q.17-9.99 1.22-15.8C51.38 85.27 91.72 82 129.09 78.73c4.52-.39 8.82-.03 13.24-.47 8.42-.83 16.52-.81 24.85-2.7 7.09-1.61 11.42-4.8 12.87-11.86.28-1.33-.38-2.33-1.05-3.41q-.25-.4-.72-.45c-8.61-.94-6.84 7.82-12.56 10.52-9.88 4.66-10.44-8.78-17.98-6.54-5.98 1.78-13.79 9.17-20.23 5.95q-10.61-5.31-11.23-16.5c-.33-6.09 2.69-10.47 8.43-12.22q.65-.19 1.08.33l1.46 1.79q.58.71-.33.59-1.02-.13-1.95-.64-.4-.22-.83-.03c-4.7 2.04-4.07 5.52-3.88 9.81.33 7.42 6.14 9.12 12.37 7.7 6.74-1.55 9.11-9.31 15.62-10.54q.49-.09.94.12c5.95 2.76 13.47 7.6 14.84-3.24 1.68-13.33 2.38-22.52 10.73-33.01a.34.34 0 0 0-.34-.54C82.18 35.4 14.49 114.57 8.46 209.64c-.95 14.95-.36 26.82 1.52 44.11q.19 1.78.93 4.08.25.78.56.02 1.85-4.45 2.58-5.53c4.49-6.69 15.46-7.62 21.79-3.51a1.65 1.64-61.6 0 0 2.41-.72c7-16.08 25.08-38.11 45.47-31.92q11.26 3.42 11.81 18.45.13 3.48-1.2.26c-.96-2.31-1.33-5.44-2.92-7.61-11.16-15.18-30.2 1.64-22.77 15.84 8.22 15.73 38.65 17.17 53.36 14.37a.58.57 49.8 0 0 .09-1.1q-11.8-4.44-10.91-17.61c.98-14.58 20.84-20.49 27.13-5.46a.3.3 0 0 1-.5.32c-3.59-4.02-13.96-8.1-14.88.87-.57 5.45 5.09 10.08 9.62 11.64 23.92 8.25 35.13-36.13 37.76-51.13 3.27-18.66 4-37.92.5-56.62a.54.54 0 0 0-1.04-.1c-4.32 11.2-8.59 22.63-17.85 30.85-5.62 4.99-12.33-8.86-14.05-12.45q-6.32-13.23-12.2-26.65c-2.27-5.21-13.52-28.21-21.92-21.55Q83.96 124.16 82.13 149c-1.2 16.43 4.68 37.32 21.19 43.87 9.77 3.88 19.03 1.34 25.71-6.56q1.48-1.75 3.04-3.42.35-.37.29.13ZM362.8 70.5c2.39-13.69-11.11-20.53-22.7-18.55a.41.41 0 0 0-.02.81q15.48 3.6 22.38 17.79a.18.18 0 0 0 .34-.05ZM127.74 294.24c-18.05 13.42-44.84 37.01-31.92 61.29 5.73 10.78 20.34 17.04 30.43 22.96 16.01 9.4 27.25 26.48 41.28 38.98q2.63 2.34 6.76 2.64.71.05.21-.46c-31.67-32.07-41.91-83.44-13.21-120.95a.41.41 0 0 0-.51-.61c-3.1 1.56-6.6 5.86-9.1 8.35-19.07 18.96-21.69 48.24-14.1 72.87a.31.31 0 0 1-.51.31c-11.78-11.75-37.42-16.96-38.51-36.5-.44-8.06 4.68-17.32 10.11-23.22 29.03-31.52 74.15-52.93 109-82.49 29.42-24.96 5.72-41.23-7.86-63.23-12.53-20.31.94-34.19 13.33-49.01 9.86-11.79 11.57-26.7-1.91-36.52-11.12-8.1-29.94-11.4-33.98-25.05a.65.65 0 0 0-1.26.26c1.89 16.25 19.11 20.66 30.54 27.58 9.93 6 7.8 13.93 1.8 21.89-7.79 10.35-17.57 19.6-19.78 33.58-3.07 19.39 8.5 33.85 19.79 47.76 4.83 5.94 9.32 15.32 6.78 23.01-4.7 14.19-26.87 28.73-38.95 36.74-19.65 13.03-39.49 25.74-58.43 39.82ZM357.7 98.33c-12.25-8.59 4.93-25.11 14.76-11.68 11.36 15.53-19.05 33.63-29.53 38.26-11.08 4.89-23.5 6.77-35.43 4.5-8.08-1.53-14.61-5.36-21.46-9.04q-.61-.33-.44.34c.92 3.44 11.81 8.4 16.11 10.29 17.46 7.68 46.47 18.81 49.23 41.05q.37 2.96.43 6.16a.5.5 0 0 0 .98.13c5.36-18.32-8.9-31.35-22.68-40.16a.48.48 0 0 1 .24-.89c20.94-.94 46.8-12.03 54.2-33.43 1.26-3.64.97-10.29-.35-13.78q-4.54-12.03-17.32-12.24c-6.62-.11-11.96 2.29-14.85 8.27-3.32 6.86.21 12.2 6.94 14.47 1.6.54 2.77.02 4.18-.66a.43.43 0 0 0-.14-.82l-3.96-.43q-.5-.05-.91-.34ZM139.98 85.19c13.16.3 25.95-.75 39.02 1.42 7.79 1.29 29.68 6.36 23.62 19.28-3.89 8.29-12.43 16.02-16.97 23.74-12.05 20.5-2.87 38 4.7 57.77 8.01 20.89-3.13 40.81-18.7 54.22-14.87 12.8-40.13 18.51-53.1-.21a.41.41 0 0 0-.73.37c5.67 16.96 26.37 16.83 40.52 14.15 19.43-3.69 39.24-16.6 43.23-37.19 3-15.49-3.34-29.56-10.65-44.1-5.33-10.61-7.54-24.17-3.78-35.61 4.09-12.47 16.16-20.08 21.29-32.82 3.99-9.91-7.37-17.78-15.48-20.1-16.21-4.65-31.2-4.07-47.77-2.46q-3.13.3-5.28.93-1.92.56.08.61Zm26.31 6.66c-8.76-1.41-14.3-.23-23.1.07q-11.04.38-22.29 5.08-.47.2-.59.71c-1.01 4.26 2.16 9.88 4.64 13.38 8.77 12.38 17.51 24.23 24.56 37.76a.33.33 0 0 0 .58 0c8.3-15.79 13.64-33.48 17.76-50.78q.74-3.09.67-5.78-.02-.68-.68-.52c-.69.17-.94.18-1.55.08Zm200.32 50.88c13.25-7.1 32.22-23.79 31.11-40.81a.43.43 0 0 0-.85-.08c-5.18 20.22-22.68 36.11-42.67 42.43a.54.53-31.4 0 0-.22.89c4.3 4.29 8.83 9.06 13.32 12.48 10.65 8.12 24.81 14.53 38.5 13.7 8.07-.48 16.41-4.57 19.74-12.26a.33.32 83.4 0 0-.49-.39c-19.13 13.9-45.08.66-58.56-15.32a.42.42 0 0 1 .12-.64Zm36.66-38.77c-1.04 11.61-5.13 18.93-12.19 27.92-14.13 17.99 6.21 25.24 19.87 19.9 7.35-2.88 9.73-10.94 4.93-17.29q-3.8-5.03-11.05-5.56a.67.67 0 0 1-.16-1.3c4.8-1.64 9.95.74 13.92 3.46a.34.33-85.5 0 0 .49-.42q-6.49-14.06-15.18-26.87a.34.34 0 0 0-.63.16Zm-324.1 68.61c-2.98-11.51-4.45-24.57-2.01-36.31 2.58-12.35 7.49-22.98 17.19-31.05a.59.59 0 0 0-.65-.98c-26.9 13.64-24.54 44.96-15.43 68.63a.47.47 0 0 0 .9-.29Zm229.66-29.17c-11.13-3.16-18.8-10.18-27.59-17.16q-1.41-1.12-4.01-2.29-.52-.23-.41.33 2.3 11.19 7.51 21.33.26.52.83.65c6.72 1.47 17.18-.93 24.1-1.91a.31.31 0 0 0 .21-.49q-.27-.36-.64-.46Zm15.8 42.48c.56 1.6.84 3.37 1.62 4.77 3.96 7.15 12.9 4.75 14.27-2.89 2.91-16.25-6.14-41.33-26.95-36.31-12.72 3.07-24.05 10.24-34.07 11.78-1.97.3-3.41-.25-4.32-2.16-5.13-10.78-8.49-22.83-12.2-34.23a.73.73 0 0 0-1.34-.13c-5 8.94-7.64 20.93-6.8 30.69 1.55 18 16.71 26.52 31.85 31.91 17.35 6.16 35.19 11.74 51.8 19.75 44.88 21.66 67.3 61.31 74.87 109.39a.39.39 0 0 0 .74.08c3.61-9.31 3.19-21.05 2.06-31.25q-1.67-15.03-3.45-30.05c-1.7-14.26-3.43-41.22 18.43-40.53 2.7.09 5.66 1.46 7.28 3.44q1.85 2.25 1.77-.66-.85-28.28-8.37-55.55a.51.51 0 0 0-.97-.04c-8.33 22.02-38.44 17.19-53.78 7.8q-4.13-2.52-8.38-5a.35.35 0 0 0-.51.39c3.69 13.87-7.01 33.91-21.91 35.9-9.65 1.3-24-5.08-22.99-16.93a.7.7 0 0 1 1.35-.17Zm-90.32 3.9c-2.15-1.97-4.79-4.61-7.64-6.58a.37.37 0 0 0-.48.56q8.08 8.27 13.93 18.37c11.46 19.79-.84 33.46-15.43 45.08-9.51 7.58-20.18 14.76-28.94 22.05-35.53 29.59-47.59 75.48-29.66 118.73 8.56 20.64 24.93 39.64 46.34 47.32 12.49 4.48 37.71 7.37 36.98-12.59-.53-14.58-23.71-12.35-18.58 3.77a.48.48 0 0 0 .94-.15q-.1-4.52 3.09-7.49c6.63-6.2 13.14 8.82 1.12 12.86-17.9 6.03-37.81-11.4-47.11-24.87-27.61-40.06-20.54-90.93 10.71-126.52 9.61-10.95 18.72-18.22 28.93-26.68 5.57-4.61 11.04-9.68 15.05-14.56 14.64-17.84 5.23-36-9.25-49.3Zm139.61 66.94a.41.41 0 0 1 .76-.26c12.04 23.02 17.53 49.19 20.97 74.63a.25.25 0 0 0 .4.16q.28-.23.29-.56c1.3-30.43-4.88-66.37-27.91-88.42a.88.87 15.8 0 0-1.46.81c1.64 7.61 2.56 14.27 2.73 22.31.47 21.21-8.41 44.89-26.9 56.64-13.94 8.87-33.11 9.6-46.67-.93q-4.05-3.15-5.41-8.16a.32.31-83.9 0 1 .45-.37c15.33 8.08 33.18 8.29 46.73-3.43 11.25-9.73 18.07-30.34 6.78-42.59-12.1-13.14-31.14-14.16-45.93-22.99q-14.2-8.48-22.32-23.66a.33.33 0 0 0-.6.03q-.28.68 0 1.42 7.01 18.16 23 27.99c15.55 9.55 50.31 11.55 44.47 38.69-4 18.54-20.84 29.56-39.28 25.42q-8.93-2-17.32-6.24a.41.4 13.2 0 0-.59.36c-.05 18.04 11.95 30.68 29.38 32.89 19.98 2.54 37.23-4.9 49.77-20.05q17.64-21.34 11.26-50.85-1.48-6.85-2.6-12.84Zm59.97-20.26c6.45-3.9 6.53-13.04-1.36-14.52-10.53-1.97-8.75 13.06-7.78 18.67q2.52 14.46 4.72 28.98c.62 4.13.64 9.8 1.6 14.67q.16.83.39.02 6.83-23.82 8.24-48.57.03-.63-.53-.34c-1.22.65-3.85 2.45-5.24 1.8q-.68-.32-.04-.71Zm-124.68 49.28c-5.73-4.78-13.59-8.78-18.36-.26q-2.89 5.16-1.3 10c1.65 5.03 6.51 6.46 11.65 7.18 11.86 1.65 27.77-5.07 26-19.41-1.15-9.3-17.89-14.83-25.07-18.28q-23.89-11.5-36.7-35.97-.45-.87-1.14-.18l-7.86 7.74q-.41.41-.36.99c1.04 11.53-2.24 19.87-4.89 30.09-1 3.88-.78 7.68-1.17 11.7-1.22 12.7-.5 26.02-.51 38.81 0 2.08.66 4.17.77 6.35 1.22 23.61 6.76 58.96 30.01 72.18q.45.26.97.21c7.91-.75 16.23-.55 23.55-1.49q6.52-.84 13.03-1.87a.5.49 61.4 0 0 .25-.86c-3.2-2.93-8.21-10.24-7.28-14.86.77-3.85 2.77-8.48 5.9-11.08 8.21-6.84 21.94-4.18 26.63 5.76q.54 1.15-.46.37-5.08-3.97-9.84-4.15c-8.47-.31-10.04 9.93-4.49 14.51 13.9 11.44 34.57 7.09 44.21-8.15q14.8-23.39 6.98-49.63-.18-.61-.69-.23c-1.72 1.31-3.24 3.63-4.31 4.69q-3.66 3.64-7.34 7.21c-12.1 11.73-27.97 18.46-44.87 17.05-25.94-2.17-49.04-23.66-46.04-51.66.85-7.9 4.36-16.57 10.55-21.75 8.02-6.73 18.26-4.36 22.53 4.72q.44.92-.35.27Zm-247.87 35.3a.54.54 0 0 1-1.05.22c-6.33-20.88-8.82-41.9-1.39-63.49q.15-.42.47-.12c11.51 10.97 24.41 13.57 40.69 15.01q7.21.64 12.83.47c17.32-.54 34.86-4.16 50.98-10.71a.35.34-52.1 0 0-.08-.66q-.63-.08-1.36.13-25.8 7.58-52.67 6.53c-15.83-.63-36.53-5.39-46.92-18.22q-7.69-9.5-3.11-20.8a.37.36 72.8 0 0-.64-.34c-28.51 43.37-21.15 91.78 11.89 130.4 11.75 13.74 25.54 20.24 40.95 28.48 8.6 4.6 15.75 11.68 22.5 18.53 5.13 5.2 9.74 9.12 15.01 13.32 3.03 2.41 12.53 8.23 16.36 6.81q.55-.21 0-.43c-19.6-7.97-30.58-30.11-47.1-41.39-10.76-7.34-29.13-14.47-38.61-28.29Q69.33 340.79 69.51 322c.11-11.57 4.05-31.64 15.79-35.87 15.2-5.48 22.04 15 8.67 19.47-4.93 1.64-9.48-1.15-12.77-4.68a.31.31 0 0 0-.51.32c4.34 11.13 17.65 10.5 23.6 1.35 4.01-6.15 2.42-14.89-2.61-19.76q-4.27-4.13-11.41-5.11c-22.72-3.12-30.76 26.6-28.93 43.32Zm-40.1-48.7q-4.74-.73-7.82-4.34a.43.43 0 0 0-.75.37q11.49 53.09 46.49 94.48c.98 1.16 7.35 9.32 8.22 9.33a.47.43 68.4 0 0 .29-.76c-21.98-25.78-36.84-58.73-37.5-92.55-.11-5.4-.69-19.07-6.73-21.03-3.8-1.23-7.55 1.57-7.49 5.61.04 3.48 2.87 6.2 5.59 8.14a.42.41 66.9 0 1-.3.75Zm215.65 104.07q6.45-19.21 2.13-38.67c-2.81-12.66-9.75-23.51-11.75-36.64-2.14-14.04 5.23-26.16 6.3-39.65a.57.57 0 0 0-.97-.44c-18.37 19.13-39.14 42.95-44.27 69.83-8.04 42.15 33.45 59.15 66.47 63.89a.19.19 0 0 0 .19-.29c-3.62-5.96-7.37-10.39-15.31-11q-.54-.04-.94-.42c-1.94-1.84-2.78-3.83-1.85-6.61Zm100.46 21.14q1.73.28.28 1.27-28.57 19.39-62.21 27.46-.63.15-.62-.5c.07-3.64.05-7.08-1.04-10.45q-5.19-16.15-22.26-17.53c-12.9-1.05-32.44 7.76-25.82 23.89q.21.5.78.71.59.22.43-.39c-3.4-13.61 12.18-21.45 23.46-18.32 13.84 3.84 19.93 16.2 14.85 29.76a.54.54 0 0 0 .59.73c30.74-4.66 61.11-18.95 85.61-37.55a.47.47 0 0 0-.27-.85c-13.09-.45-27.5-5.89-32.67-19q-.86-2.16-.71-4.49.02-.25-.2-.38l-.22-.13q-.32-.19-.46.16c-4.87 12.41 10.07 23.95 20.48 25.61ZM126.69 601h-10.25c-24.72-2.15-43.06-24.13-42.43-48.35.63-24.4 19.87-43.68 44.26-46.21 41.09-4.25 68.9 43.37 42.43 76.33-8.74 10.88-19.94 16.63-34.01 18.23Zm-44.47-39.38c1.18 19.17 13.52 34.23 33.53 34.67 25.21.55 43.66-19.46 46.95-43.54 2.96-21.66-12.63-41.72-35.21-41.45-25.86.31-46.83 25.01-45.27 50.32ZM292.29 548.44a.28.28 0 0 0 .06.54c16.93 2.3 29.49 17.58 19.33 34.32-9.87 16.25-36.45 15.31-52.48 14.61a.55.54-74.4 0 1-.45-.81c1.06-1.89 1.74-3.62 1.74-5.92q.02-37.33 0-74.68c0-1.9-.87-3.17-1.32-4.99q-.13-.55.43-.55c12.91.07 42.23-3.78 47.43 13.52q.87 2.89.17 7.77c-1.12 7.89-7.81 13.45-14.91 16.19Zm-22.59-1.64c10.35 2.27 24.08-1.33 27.85-11.99q3.1-8.77-2.07-14.28c-6.02-6.41-17.48-6.28-25.69-3.97q-.54.15-.54.7v28.98q0 .46.45.56Zm-.17 42.06c1.59 2.15 4.91 4.12 7.47 4.36 13.62 1.28 25.95-4.15 28.31-18.78 2.26-14.02-5.57-18.95-17.41-22.22-4.88-1.34-9.4-.75-14.14-1.46q-2.06-.31-3.97.41-.54.2-.54.78V588q0 .48.28.86ZM329.53 551.15q-.09 16.18-.01 32.35c.04 7.21 2.83 10.17 10.03 10.21q10.46.07 20.91.04c5.57-.02 9.07-1.14 13.07-4.52a.46.45 78.9 0 1 .72.49l-2.48 7.81q-.15.47-.66.47l-51.38-.01q-.73 0-.44-.68 2.21-5.24 2.21-7.8v-70.42c0-2.62-.67-4.81-1.5-7.21q-.19-.55.33-.81c1.54-.77 3.36-.02 4.55-.04q19.48-.2 38.95.24.67.01.67.68v5.5q0 .41-.39.29c-8.79-2.68-23.87-4.68-33.45-1.19q-.51.18-.61.73c-1.51 8.8-.63 19.85-.5 28.88q.01.55.56.55 11.38.13 22.6.02c2.15-.02 3.12-.81 4.83-1.89q.71-.45.71.39v6.97q0 .91-.74.38l-2.43-1.73q-.45-.32-1-.31l-24.03.09q-.52 0-.52.52ZM185.33 515.63a.66.65-6 0 0-.52.64q-.12 37.39-.04 74.09c.01 2.52-.15 4.32.81 6.76a.64.64 0 0 1-.6.88l-9.69-.01q-.61 0-.35-.55l1.34-2.83q.24-.48.24-1.02l-.03-77.68q0-.4-.14-.77l-1.22-3.27q-.27-.72.5-.73 13.08-.29 26.11-.07c28.27.48 28.66 33.92 1.49 38.74a.59.59 0 0 0-.38.91l31.93 45.77a.96.96 0 0 1-.79 1.51h-9.76a1.04 1.04 0 0 1-1.02-.83q-.87-4.33-3.41-8.18-12.07-18.37-24.7-36.37-1.43-2.04-2.56-4.27-.28-.54.33-.58c11.23-.62 25.35-6.4 21.74-20.63-3.12-12.28-19.36-13.59-29.28-11.51ZM236.46 598a.42.42 0 0 1-.36-.64l1.38-2.28q.27-.43.27-.94.01-38.69 0-77.38c-.01-1.9-.73-3.35-1.17-5.2q-.13-.56.44-.56h9.76q.68 0 .54.66c-.66 2.96-1.27 5.59-1.28 8.61q-.19 36.17.14 72.34c.01 1.9.81 3.13 1.65 4.74q.31.59-.37.6l-11 .05Z"/></svg>